<?xml version="1.0" encoding="UTF-8" standalone="no"?>
<!-- Generator: Adobe Illustrator 18.0.0, SVG Export Plug-In . SVG Version: 6.00 Build 0)  -->
<!DOCTYPE svg  PUBLIC '-//W3C//DTD SVG 1.1//EN'  'http://www.w3.org/Graphics/SVG/1.1/DTD/svg11.dtd'>
<svg id="content" xmlns="http://www.w3.org/2000/svg" xml:space="preserve" height="18.8px" viewBox="0 0 108 18.8" width="108px" version="1.1" y="0px" x="0px" xmlns:xlink="http://www.w3.org/1999/xlink" enable-background="new 0 0 108 18.8">
<symbol id="logo_x5F_dark" viewBox="0 -136 416 136">
	<path d="m0.7-52.6c0 29 24.3 52.5 53.3 52.5 16 0 27.4-6.3 36-14.5l-10.2-10.1c-6.1 5.8-14.4 10.3-25.8 10.3-21.1 0-37.6-17-37.6-38.1s16.5-38.1 37.6-38.1c13.7 0 21.5 5.5 26.5 10.5 4.1 4.1 6.8 10 7.8 18h-34.3v14.3h48.3c0.5-2.6 0.8-5.6 0.8-9 0-10.8-2.9-24.1-12.4-33.5-9.3-9.6-21.1-14.7-36.7-14.7-29 0-53.3 23.5-53.3 52.4z"/>
	<path d="m142-37.5c-18.7 0-33.9-14.2-33.9-33.8 0-19.5 15.2-33.8 33.9-33.8s33.9 14.3 33.9 33.8c0 19.6-15.2 33.8-33.9 33.8zm0-54.2c-10.2 0-19.1 8.4-19.1 20.5 0 12.2 8.8 20.5 19.1 20.5 10.2 0 19.1-8.3 19.1-20.5 0-12.1-8.9-20.5-19.1-20.5z"/>
	<path d="m216-37.5c-18.7 0-33.9-14.2-33.9-33.8 0-19.5 15.2-33.8 33.9-33.8s33.9 14.3 33.9 33.8c0 19.6-15.2 33.8-33.9 33.8zm0-54.2c-10.2 0-19.1 8.4-19.1 20.5 0 12.2 8.8 20.5 19.1 20.5s19.1-8.3 19.1-20.5c0-12.1-8.9-20.5-19.1-20.5z"/>
	<path d="m306.8-39.5v-5.5h-0.5c-3.3 4-9.7 7.6-17.8 7.6-16.9 0-32.4-14.8-32.4-33.9 0-18.9 15.5-33.7 32.4-33.7 8.1 0 14.5 3.6 17.8 7.7h0.5v-4.9c0-12.9-6.9-19.8-18-19.8-9.1 0-14.7 6.5-17 12l-12.9-5.4c3.7-9 13.6-20 30-20 17.4 0 32.1 10.2 32.1 35.2v60.7h-14.2zm-17-52.2c-10.2 0-18.8 8.6-18.8 20.4 0 11.9 8.6 20.6 18.8 20.6 10.1 0 18-8.7 18-20.6 0.1-11.9-7.9-20.4-18-20.4z"/>
	<polygon points="346 -103 331.2 -103 331.2 -3.7 346 -3.7"/>
	<path d="m386.7-91.7c-7.6 0-12.9 3.5-16.4 10.2l45.2 18.7-1.5 3.8c-2.8 7.6-11.4 21.5-28.9 21.5-17.4 0-31.9-13.7-31.9-33.8 0-18.9 14.3-33.8 33.5-33.8 15.5 0 24.4 9.5 28.2 15l-11.5 7.7c-3.9-5.6-9.1-9.3-16.7-9.3zm-1.1 41.2c5.9 0 10.9-2.9 12.5-7.2l-30.2-12.5c-0.4 13 10.1 19.7 17.7 19.7z"/>
	<polygon points="0 -136 416 -136 416 0 0 0" fill="none"/>
</symbol>
<g opacity=".26">
		<rect width="108" height="18.8" fill="none"/>
		<path d="m62.1 14.3v-12.7h7.4v1.6h-5.8v4.2h5.2v1.5h-5.2v5.4h-1.6z"/>
		<path d="m78.9 9.9c0 2.6-1.9 4.6-4.5 4.6s-4.5-2-4.5-4.6c0-2.6 1.9-4.6 4.5-4.6s4.5 2 4.5 4.6zm-1.6 0c0-2-1.4-3.1-2.8-3.1-1.5 0-2.8 1.2-2.8 3.1 0 2 1.4 3.1 2.8 3.1 1.4 0.1 2.8-1.1 2.8-3.1z"/>
		<path d="m80.2 14.3v-8.7h1.6v1.4h0.1c0.4-1 1.6-1.6 2.5-1.6 0.5 0 0.9 0.1 1.2 0.2l-0.6 1.5c-0.2-0.1-0.5-0.1-0.9-0.1-1.1 0-2.3 0.9-2.3 2.5v4.8h-1.6z"/>
		<path d="m86.5 5.6h1.6v1.2h0.1c0.5-0.8 1.6-1.5 2.7-1.5 1.4 0 2.3 0.6 2.7 1.7 0.6-1 1.7-1.7 3-1.7 2.1 0 3.1 1.5 3.1 3.7v5.3h-1.6v-5.1c0-1.8-0.7-2.4-1.9-2.4-1.3 0-2.2 1.3-2.2 2.7v4.8h-1.6v-5.1c0-1.8-0.7-2.4-1.9-2.4-1.3 0-2.2 1.3-2.2 2.7v4.8h-1.6v-8.7z"/>
		<path d="m100.7 12.1l1.5-0.6c0.5 1.1 1.3 1.6 2.4 1.6 1 0 1.7-0.5 1.7-1.2 0-0.4-0.3-0.9-1.2-1.2l-1.8-0.4c-0.8-0.2-2.3-0.9-2.3-2.4 0-1.6 1.6-2.6 3.4-2.6 1.5 0 2.8 0.7 3.3 2l-1.4 0.6c-0.3-0.8-1.1-1.2-2-1.2s-1.7 0.4-1.7 1.1c0 0.5 0.5 0.9 1.2 1l1.7 0.4c1.7 0.4 2.4 1.5 2.4 2.5 0 1.5-1.4 2.7-3.4 2.7-2.1 0.1-3.3-1.1-3.8-2.3z"/>
			<use xlink:href="#logo_x5F_dark" transform="scale(.1385 -.1385)" height="136" width="416" y="-136" overflow="visible"/>
</g>
</svg>
